<svg width="48" height="48" viewBox="0 0 48 48" fill="none" xmlns="http://www.w3.org/2000/svg">
  <path d="M40 16H32V8H8C5.8 8 4 9.8 4 12V36H8C8 39.3 10.7 42 14 42C17.3 42 20 39.3 20 36H28C28 39.3 30.7 42 34 42C37.3 42 40 39.3 40 36H44V24L40 16ZM14 38C12.9 38 12 37.1 12 36C12 34.9 12.9 34 14 34C15.1 34 16 34.9 16 36C16 37.1 15.1 38 14 38ZM34 38C32.9 38 32 37.1 32 36C32 34.9 32.9 34 34 34C35.1 34 36 34.9 36 36C36 37.1 35.1 38 34 38Z" fill="#00A65F"/>
  <text x="8" y="26" font-family="Arial" font-size="10" fill="#00A65F">FREE</text>
</svg>
