<svg width="48" height="48" viewBox="0 0 48 48" fill="none" xmlns="http://www.w3.org/2000/svg">
  <path d="M24 4C12.95 4 4 12.95 4 24C4 35.05 12.95 44 24 44C35.05 44 44 35.05 44 24C44 12.95 35.05 4 24 4ZM32.95 24.55L25.45 32.05C25.05 32.45 24.55 32.65 24.05 32.65C23.55 32.65 23.05 32.45 22.65 32.05L15.15 24.55C14.75 24.15 14.55 23.65 14.55 23.15C14.55 22.65 14.75 22.15 15.15 21.75L22.65 14.25C23.45 13.45 24.75 13.45 25.55 14.25L32.95 21.75C33.75 22.55 33.75 23.75 32.95 24.55Z" fill="#FF6B6B"/>
</svg>
