<svg width="150" height="40" viewBox="0 0 150 40" fill="none" xmlns="http://www.w3.org/2000/svg">
  <path d="M20.5 8.5C31.5 8.5 40.5 17.5 40.5 28.5C40.5 39.5 31.5 48.5 20.5 48.5C9.5 48.5 0.5 39.5 0.5 28.5C0.5 17.5 9.5 8.5 20.5 8.5Z" fill="#00A65F"/>
  <path d="M55.5 15.5H65.5L72.5 35.5L79.5 15.5H89.5V45.5H83.5V25.5L76.5 45.5H68.5L61.5 25.5V45.5H55.5V15.5Z" fill="#333333"/>
  <path d="M95.5 15.5H105.5L112.5 35.5L119.5 15.5H129.5V45.5H123.5V25.5L116.5 45.5H108.5L101.5 25.5V45.5H95.5V15.5Z" fill="#333333"/>
</svg>
