<svg width="48" height="48" viewBox="0 0 48 48" fill="none" xmlns="http://www.w3.org/2000/svg">
  <path d="M42 12H38V8C38 6.9 37.1 6 36 6H6C4.9 6 4 6.9 4 8V32C4 33.1 4.9 34 6 34H8.68C9.5 36.36 11.64 38 14.18 38C16.72 38 18.86 36.36 19.68 34H28.32C29.14 36.36 31.28 38 33.82 38C36.36 38 38.5 36.36 39.32 34H42C43.1 34 44 33.1 44 32V20L42 12ZM14.18 34C12.98 34 12 33.02 12 31.82C12 30.62 12.98 29.64 14.18 29.64C15.38 29.64 16.36 30.62 16.36 31.82C16.36 33.02 15.38 34 14.18 34ZM33.82 34C32.62 34 31.64 33.02 31.64 31.82C31.64 30.62 32.62 29.64 33.82 29.64C35.02 29.64 36 30.62 36 31.82C36 33.02 35.02 34 33.82 34ZM38 24H34V16H37.76L40 22C40 23.1 39.1 24 38 24Z" fill="#00A65F"/>
  <text x="12" y="22" font-family="Arial" font-size="10" fill="#00A65F">24H</text>
</svg>
